<?xml version="1.0" standalone="no"?>
<!DOCTYPE svg PUBLIC "-//W3C//DTD SVG 20010904//EN"
 "http://www.w3.org/TR/2001/REC-SVG-20010904/DTD/svg10.dtd">
<svg version="1.0" xmlns="http://www.w3.org/2000/svg"
 width="1231.000000pt" height="1231.000000pt" viewBox="0 0 1231.000000 1231.000000"
 preserveAspectRatio="xMidYMid meet">
<metadata>
Created by potrace 1.11, written by Peter Selinger 2001-2013
</metadata>
<g transform="translate(0.000000,1231.000000) scale(0.100000,-0.100000)"
fill="#000000" stroke="none">
<path d="M5138 10015 c-2 -2 -45 -6 -96 -9 -51 -4 -102 -9 -112 -11 -10 -2
-43 -6 -73 -9 -29 -4 -89 -13 -132 -21 -43 -9 -92 -18 -109 -21 -72 -12 -273
-67 -388 -105 -550 -183 -1022 -478 -1443 -902 -207 -209 -420 -476 -537 -673
-18 -31 -41 -70 -52 -88 -192 -320 -355 -728 -441 -1106 -18 -80 -36 -163 -39
-185 -4 -22 -13 -80 -22 -130 -8 -49 -17 -108 -19 -130 -2 -22 -7 -80 -12
-130 -16 -177 -8 -706 12 -826 2 -13 9 -62 15 -109 16 -121 45 -262 94 -465
26 -107 118 -375 173 -505 70 -166 184 -392 246 -487 15 -24 27 -44 27 -47 0
-4 157 -242 171 -260 5 -6 45 -58 90 -114 100 -129 111 -142 234 -270 105
-110 174 -177 239 -233 22 -19 51 -45 65 -58 63 -57 338 -256 456 -328 285
-174 666 -336 960 -409 53 -13 154 -37 170 -40 11 -2 43 -8 70 -14 71 -14 103
-19 160 -26 28 -3 61 -8 75 -10 82 -13 212 -19 415 -19 320 0 496 18 780 80
11 3 29 7 40 9 107 22 334 93 480 151 219 86 540 255 704 370 126 89 294 217
321 245 3 3 23 20 45 39 106 89 360 350 421 432 l24 33 0 -30 c1 -36 19 -60
45 -59 11 0 26 -4 34 -10 11 -7 13 -7 7 3 -9 16 6 16 23 0 11 -11 12 -10 7 0
-6 9 1 12 26 9 19 -2 40 -7 47 -12 9 -5 12 -4 8 2 -5 7 28 10 99 9 58 -1 108
2 110 6 3 5 13 4 22 -1 9 -4 23 -6 31 -3 9 3 11 0 6 -8 -6 -9 -4 -11 5 -5 22
13 64 15 72 2 5 -8 8 -8 8 -1 0 6 18 10 41 10 22 -1 43 2 45 6 3 4 12 4 22 1
9 -4 32 -7 52 -6 19 0 38 -4 42 -11 6 -8 8 -8 8 0 0 7 18 12 41 12 28 1 39 -3
36 -11 -3 -7 3 -13 14 -13 13 0 15 3 7 13 -8 10 -6 13 6 13 9 0 16 -4 16 -10
0 -5 5 -10 11 -10 5 0 7 5 4 10 -3 6 1 10 10 10 12 0 15 -5 11 -17 -5 -16 -4
-16 6 -3 12 13 35 17 76 12 8 -1 11 -9 7 -21 -3 -11 -1 -22 4 -26 6 -3 9 0 6
7 -3 8 2 22 11 33 15 19 15 19 10 1 -5 -14 -3 -16 6 -8 14 11 17 12 48 12 11
0 23 8 26 18 3 9 10 25 15 36 7 13 7 16 0 11 -6 -3 -11 1 -11 10 0 9 5 13 10
10 6 -3 10 -1 10 4 0 6 -4 11 -10 11 -14 0 -12 37 3 43 9 4 9 6 0 6 -7 1 -13
10 -13 22 0 11 4 18 9 14 5 -3 13 -1 16 5 4 6 1 9 -6 8 -7 -2 -15 5 -17 16 -2
10 0 16 5 13 5 -4 10 0 10 8 0 8 -4 12 -8 9 -12 -7 -6 40 6 48 6 5 6 8 -2 8
-7 0 -13 12 -13 26 0 19 4 25 15 21 8 -4 17 -2 20 4 4 5 3 9 -2 8 -22 -4 -31
4 -37 32 l-6 31 -112 -6 c-93 -5 -226 -7 -308 -5 -8 0 -20 0 -25 -1 -20 -4
-45 0 -45 8 0 4 32 40 70 81 39 40 70 77 70 81 0 5 14 20 31 34 17 14 27 26
23 26 -5 0 7 14 26 32 19 18 39 31 43 30 5 -1 5 2 2 8 -4 6 4 21 18 34 13 12
26 28 28 35 3 7 12 13 21 15 10 1 21 6 25 11 4 4 2 5 -4 1 -24 -14 -13 10 20
42 33 32 54 42 41 20 -4 -7 2 -4 14 6 12 11 22 16 22 11 0 -4 7 -2 15 5 8 7
15 17 15 23 0 6 -7 2 -15 -9 -8 -10 -15 -15 -15 -10 0 5 -7 3 -15 -4 -8 -7
-15 -8 -15 -2 0 14 26 33 34 24 4 -4 7 -2 6 3 -5 23 1 36 13 29 7 -5 6 0 -3
11 -14 17 -13 18 3 12 9 -3 17 -2 17 3 0 6 -8 10 -17 10 -15 0 -16 2 -3 10 12
8 12 10 1 10 -11 0 -11 3 0 17 8 9 9 14 3 10 -6 -3 -11 1 -11 9 0 8 6 13 14
10 7 -3 13 -1 13 4 0 6 -8 10 -17 10 -15 0 -16 2 -3 10 8 5 10 10 4 10 -13 0
-12 52 1 62 7 5 7 8 0 8 -5 0 -10 17 -9 37 0 21 -3 49 -8 63 l-8 26 -205 -4
-204 -4 11 39 c5 21 16 54 24 73 24 64 98 359 118 477 31 176 50 327 61 483 5
64 5 478 0 520 -2 19 -7 73 -10 120 -8 99 -9 111 -18 165 -4 22 -9 58 -12 80
-3 22 -10 65 -15 95 -6 30 -13 69 -15 85 -3 17 -8 38 -11 47 -3 10 -7 30 -10
45 -6 34 -42 177 -54 218 -33 106 -114 343 -129 378 -10 23 -40 92 -66 152
-53 122 -137 286 -196 384 -22 34 -39 65 -39 67 0 2 -40 64 -90 137 -137 204
-288 386 -470 568 -173 174 -273 260 -430 375 -52 38 -96 72 -98 76 -2 5 -8 8
-14 8 -6 0 -25 10 -42 23 -107 80 -415 245 -601 322 -237 98 -529 184 -745
219 -19 4 -46 8 -60 11 -26 5 -68 11 -145 20 -27 3 -68 8 -90 11 -39 5 -522
13 -527 9z"/>
<path d="M9246 4728 c3 -5 10 -6 15 -3 13 9 11 12 -6 12 -8 0 -12 -4 -9 -9z"/>
<path d="M9145 4380 c-10 -11 -15 -20 -11 -20 11 0 39 30 34 36 -3 2 -13 -5
-23 -16z"/>
<path d="M9076 4269 c2 -4 -2 -10 -8 -12 -8 -4 -9 -6 -2 -6 6 -1 17 5 23 12 8
10 7 14 -4 14 -8 0 -12 -4 -9 -8z"/>
<path d="M8958 4154 c-31 -16 -38 -27 -11 -17 12 5 14 3 8 -8 -5 -8 -5 -11 1
-6 5 5 8 11 6 14 -2 3 5 11 15 19 24 18 15 17 -19 -2z"/>
<path d="M8929 4107 c6 -8 7 -18 3 -22 -4 -5 -1 -5 6 -1 10 6 10 11 1 22 -6 8
-14 14 -16 14 -3 0 0 -6 6 -13z"/>
<path d="M8870 4050 c-11 -7 -11 -10 -2 -10 8 0 10 -5 6 -12 -4 -7 -3 -9 1 -5
7 6 17 37 12 37 -1 0 -9 -5 -17 -10z"/>
<path d="M8906 4048 c3 -5 10 -6 15 -3 13 9 11 12 -6 12 -8 0 -12 -4 -9 -9z"/>
<path d="M8835 4001 c-3 -5 -2 -12 3 -15 5 -3 9 1 9 9 0 17 -3 19 -12 6z"/>
<path d="M8810 3995 c0 -5 5 -17 10 -25 5 -8 10 -10 10 -5 0 6 -5 17 -10 25
-5 8 -10 11 -10 5z"/>
<path d="M8786 3972 c-3 -5 1 -9 9 -9 8 0 12 4 9 9 -3 4 -7 8 -9 8 -2 0 -6 -4
-9 -8z"/>
<path d="M9290 3810 c0 -5 5 -10 11 -10 5 0 7 5 4 10 -3 6 -8 10 -11 10 -2 0
-4 -4 -4 -10z"/>
<path d="M9296 3557 c3 -10 9 -15 12 -12 3 3 0 11 -7 18 -10 9 -11 8 -5 -6z"/>
<path d="M8387 3529 c7 -7 15 -10 18 -7 3 3 -2 9 -12 12 -14 6 -15 5 -6 -5z"/>
<path d="M8500 3530 c-9 -6 -10 -10 -3 -10 6 0 15 5 18 10 8 12 4 12 -15 0z"/>
<path d="M8835 3530 c-3 -6 1 -7 9 -4 18 7 21 14 7 14 -6 0 -13 -4 -16 -10z"/>
<path d="M9120 3530 c-9 -6 -10 -10 -3 -10 6 0 15 5 18 10 8 12 4 12 -15 0z"/>
<path d="M8330 3510 c0 -5 5 -10 11 -10 5 0 7 5 4 10 -3 6 -8 10 -11 10 -2 0
-4 -4 -4 -10z"/>
</g>
</svg>
