<?xml version="1.0" standalone="no"?>
<!DOCTYPE svg PUBLIC "-//W3C//DTD SVG 20010904//EN"
 "http://www.w3.org/TR/2001/REC-SVG-20010904/DTD/svg10.dtd">
<svg version="1.0" xmlns="http://www.w3.org/2000/svg"
 width="1135.000000pt" height="1135.000000pt" viewBox="0 0 1135.000000 1135.000000"
 preserveAspectRatio="xMidYMid meet">
<metadata>
Created by potrace 1.11, written by Peter Selinger 2001-2013
</metadata>
<g transform="translate(0.000000,1135.000000) scale(0.100000,-0.100000)"
fill="#000000" stroke="none">
<path d="M4748 9515 c-2 -1 -52 -6 -113 -9 -60 -4 -112 -9 -115 -11 -3 -1 -27
-6 -55 -9 -27 -4 -72 -11 -100 -16 -27 -5 -66 -12 -85 -15 -96 -16 -211 -47
-389 -105 -663 -218 -1279 -678 -1694 -1265 -31 -44 -61 -85 -67 -92 -5 -7
-10 -14 -10 -17 0 -2 -27 -48 -61 -101 -60 -95 -202 -366 -229 -435 -7 -19
-24 -59 -37 -88 -45 -102 -141 -408 -176 -562 -68 -294 -92 -518 -92 -845 1
-210 8 -340 30 -504 10 -71 46 -274 50 -281 2 -4 7 -22 10 -41 20 -117 126
-452 184 -584 5 -11 16 -36 24 -55 78 -181 196 -400 286 -533 25 -38 51 -76
56 -85 90 -151 412 -509 610 -679 253 -216 613 -438 885 -546 36 -14 79 -31
95 -38 17 -7 35 -14 40 -15 6 -2 57 -19 115 -38 58 -18 129 -41 159 -50 70
-21 320 -72 396 -81 33 -4 67 -9 76 -10 106 -19 488 -26 659 -12 145 12 352
46 500 81 65 16 143 38 178 50 l42 15 105 -104 c213 -211 445 -365 710 -472
113 -46 276 -96 348 -107 15 -3 35 -7 45 -10 56 -16 145 -21 377 -21 266 0
295 2 425 29 511 107 969 407 1294 850 218 295 371 683 420 1061 18 141 24
377 12 505 -21 216 -80 479 -143 635 -131 325 -289 569 -515 796 -172 173
-338 294 -553 405 -86 44 -120 67 -121 80 -1 18 -12 134 -19 199 -4 45 -25
188 -30 216 -3 13 -8 38 -11 54 -66 364 -217 776 -412 1120 -295 522 -767
1005 -1255 1284 -17 10 -59 34 -93 53 -66 38 -220 115 -269 134 -16 6 -59 24
-95 39 -229 95 -583 185 -825 210 -33 3 -71 8 -85 11 -26 6 -476 15 -482 9z"/>
</g>
</svg>
